<?xml version="1.0" encoding="UTF-8"?>
<svg width="128" height="128" viewBox="0 0 128 128" xmlns="http://www.w3.org/2000/svg">
  <rect width="128" height="128" rx="16" fill="#E95420"/>
  <g fill="#FFFFFF">
    <path d="M24,32 C21.8,32 20,33.8 20,36 C20,38.2 21.8,40 24,40 C26.2,40 28,38.2 28,36 C28,33.8 26.2,32 24,32 Z M24,48 C21.8,48 20,49.8 20,52 C20,54.2 21.8,56 24,56 C26.2,56 28,54.2 28,52 C28,49.8 26.2,48 24,48 Z M24,64 C21.8,64 20,65.8 20,68 C20,70.2 21.8,72 24,72 C26.2,72 28,70.2 28,68 C28,65.8 26.2,64 24,64 Z M24,80 C21.8,80 20,81.8 20,84 C20,86.2 21.8,88 24,88 C26.2,88 28,86.2 28,84 C28,81.8 26.2,80 24,80 Z M24,96 C21.8,96 20,97.8 20,100 C20,102.2 21.8,104 24,104 C26.2,104 28,102.2 28,100 C28,97.8 26.2,96 24,96 Z"/>
    <path d="M40,36 L108,36 C110.2,36 112,34.2 112,32 C112,29.8 110.2,28 108,28 L40,28 C37.8,28 36,29.8 36,32 C36,34.2 37.8,36 40,36 Z M40,52 L108,52 C110.2,52 112,50.2 112,48 C112,45.8 110.2,44 108,44 L40,44 C37.8,44 36,45.8 36,48 C36,50.2 37.8,52 40,52 Z M40,68 L108,68 C110.2,68 112,66.2 112,64 C112,61.8 110.2,60 108,60 L40,60 C37.8,60 36,61.8 36,64 C36,66.2 37.8,68 40,68 Z M40,84 L108,84 C110.2,84 112,82.2 112,80 C112,77.8 110.2,76 108,76 L40,76 C37.8,76 36,77.8 36,80 C36,82.2 37.8,84 40,84 Z M40,100 L108,100 C110.2,100 112,98.2 112,96 C112,93.8 110.2,92 108,92 L40,92 C37.8,92 36,93.8 36,96 C36,98.2 37.8,100 40,100 Z"/>
  </g>
</svg> 